<?xml version="1.0" encoding="UTF-8" standalone="no"?>
<!-- Created with Inkscape (http://www.inkscape.org/) -->

<svg
   xmlns:dc="http://purl.org/dc/elements/1.1/"
   xmlns:cc="http://creativecommons.org/ns#"
   xmlns:rdf="http://www.w3.org/1999/02/22-rdf-syntax-ns#"
   xmlns:svg="http://www.w3.org/2000/svg"
   xmlns="http://www.w3.org/2000/svg"
   xmlns:sodipodi="http://sodipodi.sourceforge.net/DTD/sodipodi-0.dtd"
   xmlns:inkscape="http://www.inkscape.org/namespaces/inkscape"
   width="210mm"
   height="297mm"
   viewBox="0 0 210 297"
   version="1.1"
   id="svg229"
   inkscape:version="0.92.1 r15371"
   sodipodi:docname="cloud_logo.svg">
  <defs
     id="defs223" />
  <sodipodi:namedview
     id="base"
     pagecolor="#ffffff"
     bordercolor="#666666"
     borderopacity="1.0"
     inkscape:pageopacity="0.0"
     inkscape:pageshadow="2"
     inkscape:zoom="0.35"
     inkscape:cx="400"
     inkscape:cy="560"
     inkscape:document-units="mm"
     inkscape:current-layer="layer1"
     showgrid="false"
     inkscape:window-width="1366"
     inkscape:window-height="705"
     inkscape:window-x="-8"
     inkscape:window-y="-8"
     inkscape:window-maximized="1" />
  <metadata
     id="metadata226">
    <rdf:RDF>
      <cc:Work
         rdf:about="">
        <dc:format>image/svg+xml</dc:format>
        <dc:type
           rdf:resource="http://purl.org/dc/dcmitype/StillImage" />
        <dc:title></dc:title>
      </cc:Work>
    </rdf:RDF>
  </metadata>
  <g
     inkscape:label="Layer 1"
     inkscape:groupmode="layer"
     id="layer1">
    <path
       style="fill:#000000;stroke-width:1.05077386"
       d="m 126.43584,217.78987 c -4.74908,-1.00025 -9.7402,-3.32914 -14.19802,-6.62489 -2.81775,-2.08322 -2.82865,-2.08312 -7.38958,0.0607 -15.949118,7.49696 -38.547278,6.18461 -51.188578,-2.97269 -4.4268,-3.20677 -4.64504,-3.25106 -9.39386,-1.90634 -14.0896,3.98977 -30.3095,-2.25497 -36.5012396,-14.05308 C 4.3921424,185.86757 2.3809524e-6,170.82413 2.3809524e-6,165.69934 2.3809524e-6,149.28594 12.833982,136.13296 29.947062,135.0079 l 7.35541,-0.48357 2.49371,-5.65614 c 7.38323,-16.74641 27.78637,-26.84267 44.88698,-22.2118 l 5.34974,1.44871 2.89085,-5.52146 c 3.89143,-7.432537 12.701618,-15.527248 21.338948,-19.606015 13.89332,-6.560775 30.6003,-4.821786 43.68354,4.546915 8.57776,6.1424 16.00501,17.1285 18.6314,27.55883 1.15291,4.57863 1.44875,4.85553 7.5737,7.0888 6.82206,2.48745 14.85672,9.43342 18.04599,15.60078 3.29529,6.3724 6.90667,22.9191 6.90667,31.64515 0,11.68232 -2.79212,18.74997 -10.41593,26.36574 -8.59036,8.5813 -20.2313,11.65118 -30.38924,8.01407 -3.43756,-1.23083 -3.61476,-1.14455 -9.52909,4.64005 -4.12233,4.03191 -7.66359,6.43184 -11.20813,7.59584 -6.66582,2.18898 -15.56007,2.9283 -21.12577,1.75607 z m 19.21269,-17.85193 c 5.83906,-2.87455 7.92118,-4.7747 13.77026,-12.56671 0.19061,-0.25393 2.72508,0.39361 5.63214,1.43898 18.18828,6.54042 36.18726,-7.33294 37.50987,-28.91209 0.62827,-10.25045 -1.55124,-17.96297 -7.03764,-24.90378 -4.23923,-5.36304 -13.02574,-10.73323 -17.56129,-10.73323 -2.88066,0 -3.247,-0.56041 -5.15502,-7.88584 -5.88773,-22.60448 -25.57162,-36.329588 -47.20403,-32.914249 -12.46602,1.968142 -24.5212,11.069023 -30.545788,23.060099 -1.56296,3.11085 -2.96914,5.80096 -3.12484,5.97803 -0.15571,0.17707 -2.72234,-0.47589 -5.70363,-1.45103 -10.88972,-3.56184 -25.80173,-0.20969 -35.00207,7.86832 -3.92147,3.44309 -10.24631,14.6293 -10.24631,18.12178 0,1.71055 -0.93983,1.9349 -8.1435,1.94398 -9.84631,0.0124 -16.83749,2.82745 -22.20534,8.94108 -4.8412696,5.51391 -6.5806496,10.17578 -6.6243696,17.75464 -0.0435,7.53737 1.74248,12.37197 6.6243696,17.93214 7.11961,8.10879 21.10061,11.37343 31.27432,7.30271 l 4.12033,-1.64862 4.90038,3.74054 c 7.60597,5.80577 17.26649,8.28715 30.29531,7.78159 9.48297,-0.36797 11.60411,-0.82573 18.36806,-3.96395 l 7.647028,-3.54793 2.86071,2.67586 c 9.20503,8.61024 23.01481,10.15925 35.55105,3.98768 z"
       id="path340"
       inkscape:connector-curvature="0" />
  </g>
</svg>
